<?xml version="1.0" encoding="utf-8"?>
<svg viewBox="131.246 215.191 262.158 67.622" xmlns="http://www.w3.org/2000/svg">
  <path d="M 263.185 266.031 L 258.67 287.614 L 247.041 287.614 L 256.092 244.244 L 266.64 244.244 L 275.341 265.743 L 279.833 244.244 L 291.438 244.244 L 282.386 287.614 L 271.862 287.614 L 263.185 266.031 Z M 288.072 273.771 C 288.072 268.143 289.961 263.24 293.114 259.737 C 296.457 256.403 301.055 254.422 306.293 254.422 C 310.85 254.422 314.846 256.005 317.577 258.5 C 320.123 261.181 321.694 264.967 321.694 269.259 C 321.694 274.224 319.906 278.876 316.766 282.556 C 313.45 286.182 308.741 288.285 303.392 288.285 C 300.478 288.285 297.613 287.578 295.307 286.438 C 293.008 285.174 291.039 283.207 289.819 281.013 C 288.733 278.829 288.072 276.271 288.072 273.771 Z M 310.04 268.265 C 310.04 266.737 309.9 265.973 309.075 265.334 L 309.02 265.291 L 308.977 265.233 C 308.359 264.386 307.667 264.223 306.32 264.223 C 304.956 264.223 304.107 264.433 303.181 265.294 C 302.105 266.06 301.36 267.171 300.767 268.918 C 300.089 270.72 299.807 272.206 299.807 273.663 C 299.807 275.419 299.993 276.359 300.877 277.101 L 300.926 277.143 L 300.964 277.195 C 301.638 278.135 302.339 278.323 303.661 278.323 C 305.324 278.323 306.311 277.906 307.409 276.371 C 309.281 274.127 310.04 271.627 310.04 268.265 Z M 327.785 255.094 L 328.573 251.266 L 342.086 243.133 L 339.584 255.094 L 344.278 255.094 L 342.271 264.814 L 337.54 264.814 L 335.374 275.171 C 335.053 276.732 334.866 277.702 334.788 278.163 L 334.828 278.169 L 334.874 278.353 C 335.004 278.352 335.162 278.35 335.35 278.35 C 335.594 278.35 335.769 278.334 336.41 278.284 L 340.406 277.972 L 338.367 287.646 L 337.019 287.869 L 336.349 287.981 C 335.192 288.174 334.109 288.285 332.611 288.285 C 329.635 288.285 326.974 287.439 325.354 286.213 C 323.861 284.792 322.822 282.595 322.822 280.35 C 322.822 279.311 323.187 277.083 323.858 273.873 L 325.746 264.814 L 322.017 264.814 L 324.024 255.094 L 327.785 255.094 Z M 346.1 255.094 L 346.888 251.266 L 360.401 243.136 L 357.9 255.094 L 370.987 255.094 L 371.105 255.959 L 371.341 257.689 L 373.142 270.927 L 372.363 272.702 C 372.57 272.247 372.804 271.759 373.16 271.061 C 373.289 272.034 373.372 272.663 373.426 273.082 L 373.187 271.009 C 373.479 270.439 373.852 269.731 374.356 268.792 L 381.744 255.094 L 394.522 255.094 L 375.227 289.386 C 373.753 292.024 372.519 293.978 371.62 295.11 C 370.628 296.307 369.249 297.399 367.922 298.104 C 366.528 298.754 364.69 299.189 362.823 299.189 C 361.034 299.189 359.449 298.932 357.687 298.497 L 355.126 297.86 L 356.246 288.282 L 357.294 288.473 L 359.392 288.855 C 360.095 288.985 360.095 288.985 360.701 288.985 C 361.534 288.985 362.014 288.831 362.607 288.143 C 363.4 287.483 363.856 286.713 364.456 285.366 L 360.743 264.051 L 360.586 264.814 L 355.855 264.814 L 353.69 275.173 C 353.367 276.734 353.18 277.705 353.103 278.165 L 353.135 278.17 L 353.182 278.353 C 353.314 278.352 353.473 278.35 353.665 278.35 C 353.911 278.35 354.086 278.334 354.725 278.284 L 358.721 277.972 L 356.682 287.645 L 355.334 287.869 L 354.664 287.981 C 353.508 288.174 352.425 288.285 350.926 288.285 C 347.917 288.285 345.306 287.428 343.713 286.25 L 343.669 286.218 L 343.631 286.181 C 342.206 284.785 341.138 282.639 341.138 280.35 C 341.138 279.311 341.503 277.084 342.173 273.873 L 344.062 264.814 L 340.333 264.814 L 342.34 255.094 L 346.1 255.094 Z M 442.129 283.182 L 441.763 283.41 C 439.643 284.713 437.144 285.826 434.019 286.8 C 430.858 287.759 427.494 288.285 424.209 288.285 C 419.056 288.285 414.662 286.89 411.704 284.497 C 407.879 281.101 405.692 275.991 405.692 269.904 C 405.692 265.87 406.557 261.803 408.14 258.1 C 410.105 253.644 413.083 249.945 416.641 247.409 C 420.292 244.973 424.796 243.573 429.633 243.573 C 434.458 243.573 438.726 244.888 441.803 247.162 C 444.799 249.558 446.648 252.618 447.699 256.327 L 448.624 259.7 L 437.184 261 L 436.912 260.265 L 436.64 259.528 L 436.368 258.793 C 435.744 257.056 435.239 256.161 434.029 255.371 C 432.934 254.406 431.687 254.125 429.714 254.125 C 427.372 254.125 425.488 254.625 423.561 255.871 C 421.618 257.022 420.285 258.677 419.217 261.283 C 418.039 263.913 417.534 266.62 417.534 269.796 C 417.534 272.84 417.942 274.642 419.219 275.743 L 419.263 275.781 L 419.297 275.825 C 420.313 277.152 421.801 277.518 424.397 277.518 C 425.998 277.518 427.521 277.316 429.222 276.847 C 430.958 276.385 431.729 276.093 432.708 275.648 L 433.22 273.166 L 423.172 273.166 L 425.376 262.586 L 447.083 262.586 L 442.855 282.732 L 442.129 283.182 Z M 448.409 270.172 C 448.409 267.703 448.803 264.989 449.526 262.293 C 450.498 258.673 452.049 255.346 454.022 252.632 C 456.055 249.917 458.782 247.614 461.802 246.006 C 464.882 244.461 468.568 243.573 472.431 243.573 C 477.659 243.573 482.313 245.464 485.663 248.712 C 488.884 252.091 490.732 256.798 490.732 262.142 C 490.732 266.531 489.621 271 487.592 275.097 C 485.493 279.199 482.473 282.592 478.911 284.868 C 475.304 287.077 470.99 288.312 466.496 288.312 C 462.553 288.312 458.908 287.234 456.131 285.468 C 453.463 283.619 451.331 281.133 450.124 278.403 C 449.028 275.756 448.409 272.883 448.409 270.172 Z M 460.412 270.011 C 460.412 272.374 460.916 273.964 462.362 275.46 C 463.653 277.022 465.081 277.545 467.382 277.545 C 469.243 277.545 470.756 277.067 472.511 275.759 C 474.309 274.525 475.651 272.741 476.851 270.01 C 478.103 267.269 478.648 264.827 478.648 262.277 C 478.648 259.499 478.155 257.769 476.711 256.373 C 475.393 254.855 473.983 254.34 471.786 254.34 C 468.325 254.34 465.937 255.61 463.792 258.987 C 461.439 262.411 460.412 265.899 460.412 270.011 Z" style="paint-order: fill; stroke-width: 3px; text-transform: capitalize; white-space: pre; stroke: rgb(124, 179, 66); fill: rgb(174, 213, 129);" transform="matrix(1, 0, 0, 1, -107.394161, -21.160994)"/>
</svg>